<svg width="90" height="90" viewBox="0 0 90 90" fill="none" xmlns="http://www.w3.org/2000/svg">
<circle cx="45" cy="45" r="45" fill="#EFEBF4"/>
<path d="M19.7123 41.2555C19.7123 52.0315 28.4792 60.7984 39.2554 60.7984L41.7653 41.459L39.2554 21.7125C28.4792 21.7125 19.7123 30.4794 19.7123 41.2555Z" fill="#FFF7F7"/>
<path d="M39.2554 21.7125V60.7984C50.0315 60.7984 58.7985 52.0315 58.7985 41.2555C58.7985 30.4794 50.0315 21.7125 39.2554 21.7125Z" fill="#EFEBF4"/>
<path d="M21.1856 41.2551C21.1856 31.2915 29.2917 23.1856 39.2554 23.1856L40.6692 21.7123L39.2554 20C27.5351 19.9999 18 29.535 18 41.2551C18 52.9753 27.5351 62.5104 39.2554 62.5104L40.6692 60.7981L39.2554 59.3248C29.2917 59.3248 21.1856 51.2188 21.1856 41.2551Z" fill="#FD7359"/>
<path d="M39.2554 20V23.1856C49.2191 23.1856 57.3251 31.2916 57.3251 41.2551C57.3251 51.2187 49.2191 59.3247 39.2554 59.3247V62.5103C50.9756 62.5103 60.5107 52.9753 60.5107 41.2551C60.5107 29.5351 50.9756 20 39.2554 20Z" fill="#FA5A5E"/>
<path d="M27.7873 41.2551C27.7873 34.9317 32.9318 29.7871 39.2554 29.7871L40.6693 28.194L39.2554 26.6015C31.1752 26.6015 24.6017 33.175 24.6017 41.2551C24.6017 49.3352 31.1752 55.9087 39.2554 55.9087L40.6693 54.3014L39.2554 52.7231C32.9318 52.7231 27.7873 47.5785 27.7873 41.2551Z" fill="#FD7359"/>
<path d="M53.9089 41.2551C53.9089 33.1751 47.3354 26.6015 39.2554 26.6015V29.7871C45.5788 29.7871 50.7233 34.9315 50.7233 41.2551C50.7233 47.5786 45.5788 52.7231 39.2554 52.7231V55.9087C47.3354 55.9087 53.9089 49.3351 53.9089 41.2551Z" fill="#FA5A5E"/>
<path d="M34.389 41.2549C34.389 38.5716 36.5721 36.3886 39.2554 36.3886L40.4431 34.5345L39.2554 33.203C34.8154 33.203 31.2034 36.8151 31.2034 41.2549C31.2034 45.6948 34.8156 49.3069 39.2554 49.3069L40.4431 47.8243L39.2554 46.1213C36.572 46.1212 34.389 43.9382 34.389 41.2549Z" fill="#FD7359"/>
<path d="M47.3073 41.2549C47.3073 36.8151 43.6952 33.203 39.2554 33.203V36.3886C41.9387 36.3886 44.1216 38.5716 44.1216 41.2549C44.1216 43.9383 41.9386 46.1213 39.2554 46.1213V49.3069C43.6952 49.3068 47.3073 45.6947 47.3073 41.2549Z" fill="#FA5A5E"/>
<path d="M42.1406 54.3594V70.0003H57.2543L60.1552 54.3594H42.1406Z" fill="#006094"/>
<path d="M57.2543 54.3593H72.3681V70.0002H57.2543V54.3593Z" fill="#002C60"/>
<path d="M50.8958 41.2378L50.0135 41.6776V48.905H53.1992V43.6871C54.5597 43.1267 55.907 42.8464 57.2544 42.8464L59.1055 41.2554L57.2544 39.6602C55.1299 39.6602 53.0054 40.186 50.8958 41.2378Z" fill="#FFA74C"/>
<path d="M63.6131 41.2378C61.5035 40.1861 59.3789 39.6603 57.2544 39.6603V42.8465C58.6018 42.8465 59.9492 43.1268 61.3096 43.6872V48.9051H64.4952V41.6775L63.6131 41.2378Z" fill="#FE8A52"/>
<path d="M55.6616 63.3205H57.2544L58.3258 58.691H55.6616V63.3205Z" fill="#FFA74C"/>
<path d="M57.2545 58.691H58.8473V63.3205H57.2545V58.691Z" fill="#FE8A52"/>
<path d="M42.1406 47.9622V54.3597L57.2543 59.5614L59.9319 53.3405L57.2543 47.9622H42.1406Z" fill="#009DB6"/>
<path d="M57.2543 47.9619V59.5611L72.3681 54.3594V47.9619H57.2543Z" fill="#006094"/>
<path d="M39.2554 39.3392L30.4945 30.5785L28.2419 32.831L37.9611 42.55L39.2554 41.2556L40.2135 40.2974L39.2554 39.3392Z" fill="#0095FF"/>
<path d="M26.2368 35.9382L18.1145 27.8159L23.4266 25.7633L25.4792 20.4512L33.6015 28.5735L31.5488 33.8855L26.2368 35.9382Z" fill="#00C0F1"/>
</svg>
