<?xml version="1.0" encoding="UTF-8"?>
<svg id="Layer_1" data-name="Layer 1" xmlns="http://www.w3.org/2000/svg" viewBox="0 0 3000 3000">
  <defs>
    <style>
      .cls-1 {
        fill: #ff5c28;
      }
    </style>
  </defs>
  <path class="cls-1" d="m2439.66,1308.23c.3,38.26-2.03,76.54-7.07,114.5-13.67,103.05-47.41,202.9-97.14,294.1-53.94,98.92-126.2,183.31-213.39,254.69-101.47,83.07-214.24,147.19-336.37,194.02-78.6,30.14-158.29,57.86-238.71,82.72-59.34,18.34-120.59,30.51-181.09,45.03-43.03,10.33-86.29,19.67-129.31,30.06-47.66,11.51-95.52,22.41-142.6,35.99-45.75,13.2-91.04,28.29-135.77,44.61-80.15,29.25-155.01,69.45-227.4,114.31-11.12,6.89-21.71,14.71-32.08,22.71-13.63,10.51-19.12,9.45-22.82-6.72-18.78-82.23-39.96-164.04-54.99-246.97-16.51-91.06-28.9-182.96-39.93-274.88-10.18-84.88-15.06-171.52-19.84-256.88-6.1-109.08-5.01-220.25,12.98-328.19,29-173.38,83.06-340.75,173.03-492.43,63.77-107.53,147.13-205.76,244.32-284.48,133.64-108.24,297-177.41,468.75-192.06,73.13-6.24,146.74.69,219.22,10.84,72.97,10.23,143.25,31.46,211.69,58.12,92.87,36.17,177.22,86.93,253.15,151.78,79.23,67.67,145.24,145.94,194.98,237.72,64.88,119.7,99.31,255.38,100.38,391.4Z"/>
</svg>